<svg width="27" height="33" viewBox="0 0 27 33" fill="none" xmlns="http://www.w3.org/2000/svg">
<path fill-rule="evenodd" clip-rule="evenodd" d="M13.1138 21.4171C12.3301 20.9323 9.02286 18.8949 9.02286 18.8949C9.02286 18.8949 5.71722 16.8542 4.93237 16.3714C4.85741 16.3253 4.76162 16.3773 4.75745 16.4658C4.74881 16.6507 4.73601 16.9213 4.72907 17.0724C4.72583 17.1458 4.74434 17.2176 4.78306 17.2797C4.95598 17.5577 5.46547 18.3763 5.72215 18.7893C5.81887 18.945 5.84771 19.134 5.8019 19.3119L5.13846 21.8893C5.11193 21.9927 5.14817 22.1016 5.23116 22.1682C5.57314 22.4422 5.9958 22.7436 6.50545 23.0578C7.01479 23.3722 7.47354 23.6143 7.87105 23.7962C7.96746 23.8403 8.08007 23.8232 8.15889 23.7521L10.1264 21.979C10.2623 21.8566 10.4418 21.7961 10.6232 21.812C11.104 21.8539 12.0573 21.9376 12.3814 21.9661C12.4541 21.9725 12.5263 21.9563 12.5894 21.9197C12.7194 21.8444 12.9518 21.7095 13.1106 21.6175C13.1866 21.5734 13.1886 21.4634 13.1138 21.4171Z" fill="#33A1F2"/>
<path fill-rule="evenodd" clip-rule="evenodd" d="M7.55246 24.6774C7.51848 24.4708 7.38706 24.2929 7.19973 24.1996C6.67495 23.9379 6.25766 23.6876 6.14353 23.6179C6.0294 23.5482 5.61612 23.2911 5.1437 22.9435C4.97521 22.8194 4.75699 22.7837 4.55777 22.8478L4.44379 22.8844C3.6523 23.1394 3.04243 23.7753 2.82127 24.5772C2.2792 26.5427 1.25867 30.2435 0.799839 31.9073C0.73235 32.1517 1.02671 32.3314 1.21311 32.1599C2.48305 30.9916 5.30771 28.393 6.80776 27.0127C7.4198 26.4497 7.70674 25.6165 7.57177 24.7957L7.55246 24.6774Z" fill="#33A1F2"/>
<path fill-rule="evenodd" clip-rule="evenodd" d="M26.4892 2.29881C26.7294 1.97899 26.5854 1.73676 26.4781 1.63757L26.4778 1.63726C26.3646 1.54801 26.227 1.48442 26.0686 1.46033L22.5885 0.929998C22.2656 0.880868 21.9423 1.01551 21.7486 1.27966L19.8495 3.86787C19.5574 4.26589 19.6574 4.79046 19.9977 5.0725C20.0224 5.09333 20.0292 5.12971 20.0121 5.15816C19.9977 5.18164 19.9703 5.19299 19.9448 5.1891L17.6678 4.84208C17.3006 4.78627 16.9331 4.9391 16.7127 5.23963L11.1617 12.8056C11.0894 12.904 10.9546 12.9309 10.8505 12.8677L5.50689 9.62312C5.15352 9.40856 4.69237 9.52797 4.48684 9.89085C4.28657 10.2444 4.42885 10.697 4.7751 10.9073L4.9132 10.9912C4.98155 11.0325 5.01836 11.1112 5.00645 11.1906L4.84423 12.2718C4.82876 12.3757 4.71324 12.4301 4.62401 12.3758C4.62401 12.3758 3.86176 11.9203 3.84228 11.9083C3.21024 11.5193 2.38412 11.7191 1.9972 12.3545C1.65265 12.9205 1.77342 13.6401 2.25004 14.0658C2.26473 14.0792 2.40299 14.1862 2.43871 14.2081C2.43948 14.2086 2.44026 14.2092 2.44103 14.2095L2.44134 14.2098L6.43321 16.6668C8.59099 17.977 10.2312 16.9027 10.7432 16.5174C11.1977 16.1753 11.7141 15.7977 12.5754 16.3235C12.8841 16.5121 13.2738 16.5051 13.5847 16.3199L14.5784 15.728C14.8716 15.5534 15.2367 15.555 15.5287 15.7321L18.5556 17.5701C18.6745 17.6423 18.8285 17.6116 18.9111 17.4992L26.3095 7.43091C26.913 6.62181 26.4664 6.2283 26.0988 6.1316C26.0751 6.12616 26.0521 6.11947 26.0276 6.11574L24.2532 5.84552C24.2271 5.84132 24.2008 5.83013 24.1767 5.81536C24.0783 5.75504 24.0474 5.62537 24.1075 5.52633C24.709 4.70962 26.4892 2.29881 26.4892 2.29881Z" fill="#33A1F2"/>
</svg>
